<svg width="152" height="28" viewBox="0 0 152 28" fill="none" xmlns="http://www.w3.org/2000/svg">
<path d="M146.312 10.0312V15.3125C146.312 15.9375 146.464 16.4479 146.766 16.8438C147.078 17.2396 147.474 17.4375 147.953 17.4375C148.359 17.4375 148.896 17.25 149.562 16.875C149.719 16.7812 149.875 16.7344 150.031 16.7344C150.281 16.7344 150.51 16.8854 150.719 17.1875C150.927 17.4896 151.031 17.8177 151.031 18.1719C151.031 18.8177 150.677 19.4375 149.969 20.0312C148.49 21.2917 146.698 21.9219 144.594 21.9219C142.927 21.9219 141.589 21.4531 140.578 20.5156C139.568 19.5677 139.062 18.3229 139.062 16.7812V9.5625C139.062 9.32292 139.031 9.17708 138.969 9.125C138.917 9.0625 138.771 9.03125 138.531 9.03125H136.922C136.62 9.03125 136.427 8.98438 136.344 8.89062C136.26 8.78646 136.219 8.55208 136.219 8.1875V7.5C136.229 7.1875 136.349 6.95833 136.578 6.8125L143.734 2.3125C143.911 2.21875 144.13 2.17188 144.391 2.17188H145.656C145.917 2.17188 146.089 2.23438 146.172 2.35938C146.266 2.47396 146.312 2.70833 146.312 3.0625V5.17188C146.312 5.48438 146.359 5.6875 146.453 5.78125C146.557 5.875 146.771 5.92188 147.094 5.92188H149.984C150.37 5.92188 150.62 5.99479 150.734 6.14062C150.849 6.27604 150.906 6.57292 150.906 7.03125V7.95312C150.906 8.45312 150.833 8.80208 150.688 9C150.542 9.1875 150.276 9.28125 149.891 9.28125H147.062C146.771 9.28125 146.573 9.33333 146.469 9.4375C146.365 9.54167 146.312 9.73958 146.312 10.0312Z" fill="#08793B"/>
<path d="M132.516 8.84375H134.453C134.776 8.84375 135.005 8.89583 135.141 9C135.286 9.09375 135.349 9.25521 135.328 9.48438L135.203 11.3438C135.182 11.7188 135.125 11.9583 135.031 12.0625C134.938 12.1562 134.729 12.2031 134.406 12.2031C134.333 12.2031 134.161 12.1927 133.891 12.1719C133.703 12.1615 133.547 12.1562 133.422 12.1562C132.984 12.1562 132.688 12.3021 132.531 12.5938C132.375 12.875 132.297 13.4167 132.297 14.2188C132.297 15.3125 132.417 16.2344 132.656 16.9844C132.75 17.3073 132.885 17.5469 133.062 17.7031C133.24 17.849 133.531 17.9792 133.938 18.0938C134.854 18.3646 135.312 18.8698 135.312 19.6094C135.312 20.3906 134.776 20.9531 133.703 21.2969C132.641 21.6406 130.891 21.8125 128.453 21.8125C124.839 21.8125 123.031 21.0938 123.031 19.6562C123.031 19.3021 123.104 19.0417 123.25 18.875C123.406 18.7083 123.74 18.5156 124.25 18.2969C124.802 18.0469 125.135 17.5833 125.25 16.9062C125.427 15.8854 125.516 14.7917 125.516 13.625C125.516 13.1042 125.422 12.7448 125.234 12.5469C125.057 12.3385 124.729 12.2396 124.25 12.25C123.688 12.25 123.328 12.224 123.172 12.1719C123.016 12.1094 122.943 11.9688 122.953 11.75L123.078 9.78125C123.099 9.45833 123.151 9.26042 123.234 9.1875C123.328 9.10417 123.578 9.05208 123.984 9.03125C124.37 9.01042 124.563 8.82292 124.563 8.46875C124.563 8.32292 124.422 7.98958 124.141 7.46875C123.661 6.60417 123.422 5.73958 123.422 4.875C123.422 3.60417 123.859 2.56771 124.734 1.76562C126.016 0.588542 127.854 0 130.25 0C132.219 0 133.792 0.463542 134.969 1.39062C135.875 2.10938 136.328 2.9375 136.328 3.875C136.328 4.55208 136.104 5.125 135.656 5.59375C135.208 6.05208 134.651 6.28125 133.984 6.28125C133.234 6.28125 132.516 6.02083 131.828 5.5C131.661 5.36458 131.266 4.95312 130.641 4.26562C130.193 3.78646 129.745 3.54688 129.297 3.54688C129.005 3.54688 128.755 3.65104 128.547 3.85938C128.339 4.06771 128.234 4.32292 128.234 4.625C128.234 5.44792 129.016 6.32812 130.578 7.26562C131.057 7.55729 131.38 7.78646 131.547 7.95312C131.724 8.11979 131.88 8.35417 132.016 8.65625C132.089 8.78125 132.255 8.84375 132.516 8.84375Z" fill="#08793B"/>
<path d="M120.594 7.01562V16.0938C120.594 16.8125 120.656 17.3385 120.781 17.6719C120.917 18.0052 121.182 18.3125 121.578 18.5938C121.901 18.8229 122.115 19.0208 122.219 19.1875C122.333 19.3438 122.391 19.5469 122.391 19.7969C122.391 21.1406 120.688 21.8125 117.281 21.8125C115.448 21.8125 113.995 21.6667 112.922 21.375C112.557 21.2708 112.26 21.0885 112.031 20.8281C111.813 20.5677 111.703 20.2708 111.703 19.9375C111.703 19.6562 111.76 19.4375 111.875 19.2812C111.99 19.125 112.281 18.875 112.75 18.5312C113.073 18.2917 113.302 17.901 113.438 17.3594C113.573 16.8177 113.641 16.0104 113.641 14.9375C113.641 14.5938 113.615 13.9531 113.563 13.0156C113.521 12.0677 113.49 11.5156 113.469 11.3594C113.406 10.9323 113.115 10.6042 112.594 10.375C111.948 10.0938 111.625 9.67708 111.625 9.125C111.625 8.46875 112.047 7.97917 112.891 7.65625C114.057 7.20833 115.307 6.82812 116.641 6.51562C117.974 6.20312 119.005 6.04688 119.734 6.04688C120.307 6.04688 120.594 6.36979 120.594 7.01562ZM117.5 0.171875C118.406 0.171875 119.125 0.34375 119.656 0.6875C120.188 1.02083 120.453 1.47396 120.453 2.04688C120.453 2.84896 120.052 3.48438 119.25 3.95312C117.979 4.69271 116.443 5.0625 114.641 5.0625C113.88 5.0625 113.276 4.91667 112.828 4.625C112.224 4.25 111.922 3.72917 111.922 3.0625C111.922 2.16667 112.563 1.46354 113.844 0.953125C115.146 0.432292 116.365 0.171875 117.5 0.171875Z" fill="#08793B"/>
<path d="M102.906 5.9375C103.427 5.9375 104.276 6.05208 105.453 6.28125C105.693 6.32292 105.891 6.34375 106.047 6.34375C106.224 6.34375 106.568 6.25 107.078 6.0625C107.318 5.96875 107.521 5.92188 107.688 5.92188C108.167 5.92188 108.651 6.22917 109.141 6.84375C109.536 7.33333 109.859 7.86979 110.109 8.45312C110.359 9.03646 110.484 9.54167 110.484 9.96875C110.484 10.3854 110.339 10.7344 110.047 11.0156C109.755 11.2865 109.391 11.4219 108.953 11.4219C108.589 11.4219 108.26 11.3333 107.969 11.1562C107.688 10.9792 107.229 10.5885 106.594 9.98438C105.927 9.33854 105.375 9.01562 104.938 9.01562C104.646 9.01562 104.391 9.125 104.172 9.34375C103.964 9.55208 103.859 9.80208 103.859 10.0938C103.859 10.6042 104.349 11.0833 105.328 11.5312C107.089 12.3229 108.438 13.1875 109.375 14.125C110.167 14.9167 110.563 15.8854 110.563 17.0312C110.563 18.4792 109.927 19.6875 108.656 20.6562C107.563 21.5 106.224 21.9219 104.641 21.9219C104.234 21.9219 103.495 21.8542 102.422 21.7188C101.411 21.6042 100.844 21.5469 100.719 21.5469C100.583 21.5469 100.427 21.5625 100.25 21.5938C99.9479 21.6354 99.7292 21.6562 99.5938 21.6562C99.1042 21.6562 98.7188 21.5312 98.4375 21.2812C98.0104 20.8958 97.6146 20.2917 97.25 19.4688C96.8854 18.6354 96.7031 17.9219 96.7031 17.3281C96.7031 16.3698 97.0781 15.8906 97.8281 15.8906C98.1198 15.8906 98.3854 15.9896 98.625 16.1875C98.875 16.375 99.3906 16.8854 100.172 17.7188C100.599 18.1771 100.953 18.4948 101.234 18.6719C101.516 18.8385 101.818 18.9219 102.141 18.9219C102.484 18.9219 102.76 18.8333 102.969 18.6562C103.177 18.4688 103.281 18.224 103.281 17.9219C103.281 17.4531 102.88 17.026 102.078 16.6406C100.401 15.8177 99.1875 14.9688 98.4375 14.0938C97.6979 13.2188 97.3281 12.2083 97.3281 11.0625C97.3281 9.82292 97.7083 8.75521 98.4688 7.85938C99.5521 6.57812 101.031 5.9375 102.906 5.9375Z" fill="#08793B"/>
<path d="M94.1406 11.7031L94.3594 17.2031C94.3802 17.6198 94.4427 17.9271 94.5469 18.125C94.6615 18.3229 94.9844 18.7031 95.5156 19.2656C95.6719 19.4323 95.75 19.6667 95.75 19.9688C95.75 20.6562 95.3385 21.1354 94.5156 21.4062C93.6927 21.6771 92.224 21.8125 90.1094 21.8125C88.6719 21.8125 87.6563 21.6875 87.0625 21.4375C86.4479 21.1771 86.1406 20.7552 86.1406 20.1719C86.1406 19.9635 86.1719 19.8125 86.2344 19.7188C86.2969 19.6146 86.5052 19.3698 86.8594 18.9844C87.276 18.5469 87.4844 17.0885 87.4844 14.6094C87.4844 13.1719 87.3177 12.1094 86.9844 11.4219C86.7135 10.8698 86.2135 10.5938 85.4844 10.5938C84.7865 10.5938 84.3073 10.8177 84.0469 11.2656C83.7865 11.7135 83.6563 12.526 83.6563 13.7031V16.7969C83.6563 17.4115 83.6927 17.8333 83.7656 18.0625C83.849 18.2917 84.1094 18.7344 84.5469 19.3906C84.6615 19.5781 84.7188 19.7917 84.7188 20.0312C84.7188 20.6458 84.2917 21.099 83.4375 21.3906C82.5833 21.6823 81.25 21.8281 79.4375 21.8281C76.5417 21.8281 75.0938 21.2292 75.0938 20.0312C75.0938 19.7812 75.1354 19.5938 75.2188 19.4688C75.3125 19.3333 75.526 19.1458 75.8594 18.9062C76.1302 18.7083 76.3021 18.4844 76.375 18.2344C76.4479 17.974 76.5156 17.3438 76.5781 16.3438C76.651 15.1562 76.6875 13.9115 76.6875 12.6094C76.6875 11.8906 76.6302 11.4219 76.5156 11.2031C76.4115 10.974 76.099 10.6979 75.5781 10.375C75.1302 10.0938 74.9063 9.75 74.9063 9.34375C74.9063 8.92708 75.0885 8.58854 75.4531 8.32812C75.8177 8.05729 76.5677 7.71875 77.7031 7.3125C78.7031 6.95833 79.6667 6.66146 80.5938 6.42188C81.5208 6.17188 82.1563 6.04688 82.5 6.04688C82.8125 6.04688 83.0729 6.16146 83.2813 6.39062C83.5 6.61979 83.6094 6.89062 83.6094 7.20312C83.6094 7.23438 83.6042 7.36458 83.5938 7.59375C83.5833 7.67708 83.5781 7.75 83.5781 7.8125C83.5781 8.3125 83.7865 8.5625 84.2031 8.5625C84.4531 8.5625 84.7188 8.36458 85 7.96875C85.8958 6.67708 87.1979 6.03125 88.9063 6.03125C90.2188 6.03125 91.3438 6.375 92.2813 7.0625C92.9375 7.55208 93.3958 8.13021 93.6563 8.79688C93.9167 9.45312 94.0781 10.4219 94.1406 11.7031Z" fill="#08793B"/>
<path d="M72.6562 14.5H65.3125C64.9896 14.5 64.8281 14.6406 64.8281 14.9219C64.8281 15.599 65.1927 16.2396 65.9219 16.8438C66.6615 17.4375 67.4531 17.7344 68.2969 17.7344C68.7969 17.7344 69.349 17.6406 69.9531 17.4531C70.5677 17.2552 71.0729 17.0156 71.4688 16.7344C71.8229 16.4844 72.1042 16.3594 72.3125 16.3594C72.5833 16.3594 72.849 16.526 73.1094 16.8594C73.3698 17.1927 73.5 17.5365 73.5 17.8906C73.5 18.6406 73.0312 19.3646 72.0938 20.0625C70.4375 21.3021 68.526 21.9219 66.3594 21.9219C64.1719 21.9219 62.3385 21.2865 60.8594 20.0156C60.1406 19.3906 59.5469 18.6354 59.0781 17.75C58.4635 16.5729 58.1562 15.3333 58.1562 14.0312C58.1562 12.2812 58.6875 10.7083 59.75 9.3125C60.6667 8.10417 61.8333 7.20312 63.25 6.60938C64.3125 6.16146 65.4635 5.9375 66.7031 5.9375C68.6823 5.9375 70.3646 6.5 71.75 7.625C72.4479 8.1875 73.0104 8.85417 73.4375 9.625C73.9271 10.5 74.1719 11.3542 74.1719 12.1875C74.1719 12.8646 74.0312 13.4219 73.75 13.8594C73.4688 14.2865 73.1042 14.5 72.6562 14.5ZM65.7188 11.5781H67.2969C67.9635 11.5781 68.2969 11.2708 68.2969 10.6562C68.2969 10.0938 68.1354 9.63542 67.8125 9.28125C67.4896 8.92708 67.0677 8.75 66.5469 8.75C65.9635 8.75 65.5052 8.97917 65.1719 9.4375C64.8594 9.86458 64.7031 10.2969 64.7031 10.7344C64.7031 11.0469 64.776 11.2656 64.9219 11.3906C65.0781 11.5156 65.3438 11.5781 65.7188 11.5781Z" fill="#08793B"/>
<path d="M44.5625 6.01562C45.1979 6.01562 45.5938 6.07292 45.75 6.1875C45.9062 6.29167 45.9844 6.5625 45.9844 7C45.9844 7.38542 46.1094 7.57812 46.3594 7.57812C46.4635 7.57812 46.8125 7.38021 47.4062 6.98438C47.8542 6.68229 48.4219 6.43229 49.1094 6.23438C49.8073 6.02604 50.4375 5.92188 51 5.92188C52.3229 5.92188 53.5052 6.38021 54.5469 7.29688C55.3385 7.99479 55.9531 8.875 56.3906 9.9375C56.849 11.0521 57.0781 12.224 57.0781 13.4531C57.0781 16.0781 56.1927 18.2396 54.4219 19.9375C53.0573 21.2604 51.5052 21.9219 49.7656 21.9219C48.8802 21.9219 47.9688 21.7135 47.0312 21.2969C46.8438 21.2135 46.6927 21.1719 46.5781 21.1719C46.2656 21.1719 46.1094 21.4844 46.1094 22.1094C46.1094 22.9323 46.3854 23.526 46.9375 23.8906C47.4479 24.2344 47.75 24.4635 47.8438 24.5781C47.9479 24.7031 48 24.9062 48 25.1875C48 25.8125 47.651 26.2917 46.9531 26.625C46.2552 26.9688 45.2708 27.1406 44 27.1406C41.7396 27.1406 39.7604 26.6875 38.0625 25.7812C37.1979 25.3229 36.7656 24.7552 36.7656 24.0781C36.7656 23.7656 36.8281 23.526 36.9531 23.3594C37.0885 23.2031 37.3438 23.0365 37.7188 22.8594C38.2604 22.6094 38.5885 22.1562 38.7031 21.5C38.8281 20.8438 38.9219 18.9583 38.9844 15.8438C38.9115 13.2812 38.8177 11.8438 38.7031 11.5312C38.6615 11.4271 38.599 11.3594 38.5156 11.3281C38.4427 11.2969 38.1875 11.2396 37.75 11.1562C37.4167 11.0938 37.1458 10.9427 36.9375 10.7031C36.7292 10.4531 36.625 10.1562 36.625 9.8125C36.625 9.39583 36.7708 9.03125 37.0625 8.71875C37.3542 8.39583 37.8281 8.08333 38.4844 7.78125C41.0365 6.625 43.0625 6.03646 44.5625 6.01562ZM46.1094 11.9219L45.875 16.2188C45.8646 16.3958 45.8594 16.5677 45.8594 16.7344C45.8594 17.0573 46 17.3177 46.2812 17.5156C46.5625 17.7135 46.9375 17.8125 47.4062 17.8125C48.8438 17.8125 49.5625 16.6302 49.5625 14.2656C49.5625 12.7344 49.2604 11.6562 48.6562 11.0312C48.2812 10.6458 47.8333 10.4531 47.3125 10.4531C46.5729 10.4531 46.1719 10.9427 46.1094 11.9219Z" fill="#08793B"/>
<path d="M22.5469 12.75L21.2188 11.0938C20.6458 10.375 20.1979 9.89062 19.875 9.64062C19.5521 9.39062 19.1458 9.21354 18.6563 9.10938C17.8333 8.93229 17.4219 8.53646 17.4219 7.92188C17.4219 7.28646 17.9479 6.81771 19 6.51562C20.0625 6.20312 21.6979 6.04688 23.9063 6.04688C25.5104 6.04688 26.7031 6.13542 27.4844 6.3125C28.349 6.52083 28.7813 6.9375 28.7813 7.5625C28.7813 7.80208 28.6094 8.19271 28.2656 8.73438C28.2031 8.83854 28.1719 8.94792 28.1719 9.0625C28.1719 9.28125 28.3333 9.59896 28.6563 10.0156C28.9896 10.4323 29.2396 10.6406 29.4063 10.6406C29.5938 10.6406 29.8698 10.4115 30.2344 9.95312C30.599 9.48438 30.7813 9.13542 30.7813 8.90625C30.7813 8.73958 30.6667 8.48958 30.4375 8.15625C30.2396 7.86458 30.1406 7.63542 30.1406 7.46875C30.1406 7.23958 30.224 7.01562 30.3906 6.79688C30.5677 6.57812 30.7865 6.41667 31.0469 6.3125C31.5156 6.125 32.3073 6.03125 33.4219 6.03125C34.3906 6.03125 35.0625 6.125 35.4375 6.3125C35.9583 6.58333 36.2188 6.96875 36.2188 7.46875C36.2188 7.73958 36.1458 7.94271 36 8.07812C35.8542 8.21354 35.4844 8.42188 34.8906 8.70312C34.5677 8.85938 34.3229 9.03646 34.1563 9.23438C33.9896 9.42188 33.4115 10.1823 32.4219 11.5156L31.3438 13.1406C31.2188 13.3177 31.1563 13.4375 31.1563 13.5C31.1563 13.5417 31.2135 13.6562 31.3281 13.8438L32.2656 15.2656C33.2656 16.776 34.0052 17.7604 34.4844 18.2188C34.7135 18.4375 35.0833 18.6615 35.5938 18.8906C36.0729 19.099 36.3125 19.4531 36.3125 19.9531C36.3125 20.6615 35.875 21.151 35 21.4219C34.125 21.6823 32.526 21.8125 30.2031 21.8125C28.4219 21.8125 27.1771 21.7292 26.4688 21.5625C25.5313 21.3333 25.0625 20.849 25.0625 20.1094C25.0625 19.6719 25.3333 19.3281 25.875 19.0781C26.1771 18.9427 26.3281 18.7135 26.3281 18.3906C26.3281 18.0469 26.1146 17.5781 25.6875 16.9844C25.2604 16.3802 24.9271 16.0833 24.6875 16.0938C24.4375 16.1042 24.0677 16.4792 23.5781 17.2188C23.0885 17.9583 22.8438 18.5156 22.8438 18.8906C22.8438 19.0677 22.9688 19.3073 23.2188 19.6094C23.4375 19.8594 23.5469 20.1406 23.5469 20.4531C23.5469 21.3594 22.4792 21.8125 20.3438 21.8125C19.1771 21.8125 18.3385 21.6979 17.8281 21.4688C17.3177 21.2396 17.0625 20.8646 17.0625 20.3438C17.0625 20.0104 17.1406 19.7708 17.2969 19.625C17.4635 19.4688 17.7656 19.349 18.2031 19.2656C18.6615 19.1823 19.0104 18.9948 19.25 18.7031C19.4896 18.4115 20.2292 17.2865 21.4688 15.3281L22.5938 13.4688C22.6979 13.3021 22.75 13.1823 22.75 13.1094C22.75 13.0469 22.6823 12.9271 22.5469 12.75Z" fill="#08793B"/>
<path d="M13.858 17.3097L7.66091 13.7299C7.38842 13.5725 7.18354 13.6127 7.04628 13.8506C6.71585 14.4232 6.71087 15.1427 7.03133 16.0091C7.36567 16.8718 7.88884 17.5088 8.60084 17.9201C9.02277 18.1638 9.5344 18.3536 10.1357 18.4895C10.7509 18.6217 11.2942 18.6654 11.7655 18.6205C12.1863 18.5817 12.4847 18.6131 12.6605 18.7146C12.889 18.8466 13.0318 19.1171 13.0889 19.5259C13.146 19.9348 13.0881 20.289 12.9153 20.5885C12.5493 21.2228 11.8004 21.6066 10.6687 21.7398C8.66609 21.9808 6.75062 21.5732 4.92226 20.5171C3.07632 19.4508 1.83935 18.0197 1.21135 16.2239C0.909841 15.345 0.777362 14.4168 0.81391 13.4395C0.869737 12.1445 1.21538 10.9463 1.85083 9.84511C2.70487 8.36509 3.92079 7.29379 5.49859 6.63121C6.86183 6.05613 8.28606 5.86279 9.77129 6.0512C10.8865 6.19031 11.9671 6.56198 13.0131 7.16623C14.6833 8.13098 15.8284 9.42675 16.4484 11.0535C16.7628 11.8694 16.9122 12.7075 16.8964 13.5676C16.8825 14.5462 16.6722 15.3879 16.2655 16.0927C15.9351 16.6653 15.5444 17.0681 15.0936 17.301C14.6478 17.5251 14.236 17.528 13.858 17.3097ZM9.42968 11.4568L10.7614 12.2261C11.324 12.5511 11.7552 12.4537 12.0551 11.9339C12.3297 11.4582 12.4171 10.9918 12.3174 10.5349C12.2178 10.078 11.9482 9.72255 11.5087 9.46867C11.0164 9.18432 10.5178 9.15472 10.0129 9.37986C9.54074 9.58872 9.19792 9.87816 8.98441 10.2482C8.8319 10.5125 8.78668 10.733 8.84874 10.9098C8.91959 11.0917 9.11323 11.274 9.42968 11.4568Z" fill="#08793B"/>
</svg>
